{"title":"Bigg Boss Season 5 Day 8 HQ 10 Oct 2011 XviD MP3 Team BollyTv.av","uid":6734632,"size":523519956,"categoryP":"video","categoryS":"tv_shows","magnet":"?xt=urn:btih:7b4937c63e97e14dc942e68e91f49947aeeec950&amp;dn=Bigg+Boss+Season+5+Day+8+HQ+10+Oct+2011+XviD+MP3+Team+BollyTv.av&amp;tr=udp%3A%2F%2Ftracker.openbittorrent.com%3A80&amp;tr=udp%3A%2F%2Fopen.demonii.com%3A1337&amp;tr=udp%3A%2F%2Ftracker.coppersurfer.tk%3A6969&amp;tr=udp%3A%2F%2Fexodus.desync.com%3A6969","seeders":1,"leechers":0,"uploader":"ErSSP","files":1,"time":1318282000,"description":"============== For More Exclusives Visit BollyTorrent.com ================\n\nRemember to register FREE at [url]http://www.bollytorrent.com/register.php[/url] to avail more exclusives like this one. For time being BollyTorrent.com is completely FreeLeech Forum. So hurry up......!!!!\n\n\n\n[CENTER][IMG]http://img213.imageshack.us/img213/9809/cbtvbanner.gif[/IMG]\n\n\n[FONT=Century Gothic][SIZE=3][I][B][U]Bigg Boss Season 5 *Day 8* HQ 10 Oct 2011 XviD MP3 Team BollyTv[/U][/B][/I][/SIZE][/FONT]\n\n[CODE]\nFormat                           : AVI\nFormat/Info                      : Audio Video Interleave\nFile size                        : 499 MiB\nDuration                         : 1h 1mn\nOverall bit rate                 : 1 132 Kbps\nWriting library                  : Boilsoft AVI tool build 1/release\n\nVideo\nID                               : 0\nFormat                           : MPEG-4 Visual\nFormat profile                   : Advanced Simple@L5\nFormat settings, BVOP            : No\nFormat settings, QPel            : No\nFormat settings, GMC             : No warppoints\nFormat settings, Matrix          : Default (MPEG)\nCodec ID                         : XVID\nCodec ID/Hint                    : XviD\nDuration                         : 1h 1mn\nBit rate                         : 995 Kbps\nWidth                            : 512 pixels\nHeight                           : 392 pixels\nDisplay aspect ratio             : 4:3\nFrame rate                       : 25.000 fps\nColor space                      : YUV\nChroma subsampling               : 4:2:0\nBit depth                        : 8 bits\nScan type                        : Progressive\nBits/(Pixel*Frame)               : 0.198\nStream size                      : 439 MiB (88%)\nWriting library                  : XviD 1.2.1 (UTC 2008-12-04)\n\nAudio\nID                               : 1\nFormat                           : MPEG Audio\nFormat version                   : Version 1\nFormat profile                   : Layer 3\nCodec ID                         : 55\nCodec ID/Hint                    : MP3\nDuration                         : 1h 1mn\nBit rate mode                    : Constant\nBit rate                         : 128 Kbps\nChannel(s)                       : 2 channels\nSampling rate                    : 44.1 KHz\nVideo delay                      : 24ms\nStream size                      : 56.4 MiB (11%)\nAlignment                        : Split accross interleaves\nInterleave, duration             : 40 ms (1.00 video frame)\nInterleave, preload duration     : 500 ms\n\n\n\n[/CODE]\n\n[IMG]http://freeimgsharing.com/images/29700421055843852975.jpg[/IMG]\n\n[/CENTER]\n\n\nRemember to register FREE at [url]http://www.bollytorrent.com/register.php[/url] to avail more exclusives like this one. For time being BollyTorrent.com is completely FreeLeech Forum. So hurry up......!!!!\n\n============== For More Exclusives Visit BollyTorrent.com ================","torrent":{"xt":"urn:btih:7b4937c63e97e14dc942e68e91f49947aeeec950","amp;dn":"Bigg+Boss+Season+5+Day+8+HQ+10+Oct+2011+XviD+MP3+Team+BollyTv.av","amp;tr":["udp%3A%2F%2Ftracker.openbittorrent.com%3A80","udp%3A%2F%2Fopen.demonii.com%3A1337","udp%3A%2F%2Ftracker.coppersurfer.tk%3A6969","udp%3A%2F%2Fexodus.desync.com%3A6969"],"infoHash":"7b4937c63e97e14dc942e68e91f49947aeeec950","infoHashBuffer":{"type":"Buffer","data":[123,73,55,198,62,151,225,77,201,66,230,142,145,244,153,71,174,238,201,80]},"announce":[],"urlList":[]}}